HIERARCHY
ROOT Root
{
  OFFSET 0.0 0.0 0.0
  CHANNELS 6 Xposition Yposition Zposition Zrotation Yrotation Xrotation
  JOINT Hips
  {
    OFFSET 0.0 100.0 0.0
    CHANNELS 6 Xposition Yposition Zposition Zrotation Yrotation Xrotation
    JOINT Spine1
    {
      OFFSET 5.003913 -0.037094 -0.013727
      CHANNELS 3 Zrotation Yrotation Xrotation
      JOINT Spine2
      {
        OFFSET 7.125363 -1e-06 0.0
        CHANNELS 3 Zrotation Yrotation Xrotation
        JOINT Chest
        {
          OFFSET 7.594027 1e-06 0.0
          CHANNELS 3 Zrotation Yrotation Xrotation
          JOINT Neck1
          {
            OFFSET 26.313086 -0.460272 -0.181672
            CHANNELS 3 Zrotation Yrotation Xrotation
            JOINT Neck2
            {
              OFFSET 8.045911 0.0 0.0
              CHANNELS 3 Zrotation Yrotation Xrotation
              JOINT Head
              {
                OFFSET 6.432774 0.0 0.0
                CHANNELS 3 Zrotation Yrotation Xrotation
                JOINT HeadEnd
                {
                  OFFSET 16.169773 0.06451 0.00362
                  CHANNELS 3 Zrotation Yrotation Xrotation
                }
                JOINT Jaw
                {
                  OFFSET 0.108741 3.12938 0.002639
                  CHANNELS 3 Zrotation Yrotation Xrotation
                }
                JOINT LeftEye
                {
                  OFFSET 4.45173 8.166359 3.206392
                  CHANNELS 3 Zrotation Yrotation Xrotation
                }
                JOINT RightEye
                {
                  OFFSET 4.436895 8.135758 -3.222429
                  CHANNELS 3 Zrotation Yrotation Xrotation
                }
              }
            }
          }
          JOINT LeftShoulder
          {
            OFFSET 23.218927 5.195579 1.621656
            CHANNELS 3 Zrotation Yrotation Xrotation
            JOINT LeftArm
            {
              OFFSET 15.902118 2e-06 -2e-06
              CHANNELS 3 Zrotation Yrotation Xrotation
              JOINT LeftForeArm
              {
                OFFSET 28.739307 0.0 -1e-06
                CHANNELS 3 Zrotation Yrotation Xrotation
                JOINT LeftHand
                {
                  OFFSET 27.093981 -4e-06 0.0
                  CHANNELS 3 Zrotation Yrotation Xrotation
                  JOINT LeftHandThumb1
                  {
                    OFFSET 2.276781 3.380274 0.83384
                    CHANNELS 3 Zrotation Yrotation Xrotation
                    JOINT LeftHandThumb2
                    {
                      OFFSET 4.705309 -1e-06 -1e-06
                      CHANNELS 3 Zrotation Yrotation Xrotation
                      JOINT LeftHandThumb3
                      {
                        OFFSET 2.798515 0.0 3e-06
                        CHANNELS 3 Zrotation Yrotation Xrotation
                        JOINT LeftHandThumbEnd
                        {
                          OFFSET 3.180793 4e-06 -4e-06
                          CHANNELS 3 Zrotation Yrotation Xrotation
                        }
                      }
                    }
                  }
                  JOINT LeftHandIndex1
                  {
                    OFFSET 3.247786 2.352677 0.137192
                    CHANNELS 3 Zrotation Yrotation Xrotation
                    JOINT LeftHandIndex2
                    {
                      OFFSET 6.367095 1e-06 0.0
                      CHANNELS 3 Zrotation Yrotation Xrotation
                      JOINT LeftHandIndex3
                      {
                        OFFSET 3.662364 0.0 0.0
                        CHANNELS 3 Zrotation Yrotation Xrotation
                        JOINT LeftHandIndex4
                        {
                          OFFSET 2.329242 4e-06 -4e-06
                          CHANNELS 3 Zrotation Yrotation Xrotation
                          JOINT LeftHandIndexEnd
                          {
                            OFFSET 2.767823 1e-06 0.0
                            CHANNELS 3 Zrotation Yrotation Xrotation
                          }
                        }
                      }
                    }
                  }
                  JOINT LeftHandMiddle1
                  {
                    OFFSET 3.163612 0.945023 -0.406112
                    CHANNELS 3 Zrotation Yrotation Xrotation
                    JOINT LeftHandMiddle2
                    {
                      OFFSET 6.276789 3e-06 0.0
                      CHANNELS 3 Zrotation Yrotation Xrotation
                      JOINT LeftHandMiddle3
                      {
                        OFFSET 4.35652 -1e-06 4e-06
                        CHANNELS 3 Zrotation Yrotation Xrotation
                        JOINT LeftHandMiddle4
                        {
                          OFFSET 2.996877 0.0 8e-06
                          CHANNELS 3 Zrotation Yrotation Xrotation
                          JOINT LeftHandMiddleEnd
                          {
                            OFFSET 2.323256 3e-06 -4e-06
                            CHANNELS 3 Zrotation Yrotation Xrotation
                          }
                        }
                      }
                    }
                  }
                  JOINT LeftHandRing1
                  {
                    OFFSET 2.882606 -0.309162 0.107445
                    CHANNELS 3 Zrotation Yrotation Xrotation
                    JOINT LeftHandRing2
                    {
                      OFFSET 6.033198 0.0 4e-06
                      CHANNELS 3 Zrotation Yrotation Xrotation
                      JOINT LeftHandRing3
                      {
                        OFFSET 4.350578 3e-06 0.0
                        CHANNELS 3 Zrotation Yrotation Xrotation
                        JOINT LeftHandRing4
                        {
                          OFFSET 2.651321 2e-06 -7e-06
                          CHANNELS 3 Zrotation Yrotation Xrotation
                          JOINT LeftHandRingEnd
                          {
                            OFFSET 1.937663 1e-06 -4e-06
                            CHANNELS 3 Zrotation Yrotation Xrotation
                          }
                        }
                      }
                    }
                  }
                  JOINT LeftHandPinky1
                  {
                    OFFSET 2.865315 -1.525436 0.575687
                    CHANNELS 3 Zrotation Yrotation Xrotation
                    JOINT LeftHandPinky2
                    {
                      OFFSET 5.54936 1e-06 -8e-06
                      CHANNELS 3 Zrotation Yrotation Xrotation
                      JOINT LeftHandPinky3
                      {
                        OFFSET 3.070974 0.0 -4e-06
                        CHANNELS 3 Zrotation Yrotation Xrotation
                        JOINT LeftHandPinky4
                        {
                          OFFSET 1.549672 1e-06 0.0
                          CHANNELS 3 Zrotation Yrotation Xrotation
                          JOINT LeftHandPinkyEnd
                          {
                            OFFSET 1.952123 0.0 0.0
                            CHANNELS 3 Zrotation Yrotation Xrotation
                          }
                        }
                      }
                    }
                  }
                }
              }
            }
          }
          JOINT RightShoulder
          {
            OFFSET 23.161716 5.296122 -1.380114
            CHANNELS 3 Zrotation Yrotation Xrotation
            JOINT RightArm
            {
              OFFSET -16.027195 -2e-06 1.1e-05
              CHANNELS 3 Zrotation Yrotation Xrotation
              JOINT RightForeArm
              {
                OFFSET -28.736639 4e-06 2e-06
                CHANNELS 3 Zrotation Yrotation Xrotation
                JOINT RightHand
                {
                  OFFSET -27.133619 6e-06 0.0
                  CHANNELS 3 Zrotation Yrotation Xrotation
                  JOINT RightHandThumb1
                  {
                    OFFSET -2.274328 -3.351035 -0.83067
                    CHANNELS 3 Zrotation Yrotation Xrotation
                    JOINT RightHandThumb2
                    {
                      OFFSET -4.703594 -3e-06 2e-06
                      CHANNELS 3 Zrotation Yrotation Xrotation
                      JOINT RightHandThumb3
                      {
                        OFFSET -2.794935 -4e-06 -3e-06
                        CHANNELS 3 Zrotation Yrotation Xrotation
                        JOINT RightHandThumbEnd
                        {
                          OFFSET -3.183852 4e-06 1e-06
                          CHANNELS 3 Zrotation Yrotation Xrotation
                        }
                      }
                    }
                  }
                  JOINT RightHandIndex1
                  {
                    OFFSET -3.253496 -2.33755 -0.127667
                    CHANNELS 3 Zrotation Yrotation Xrotation
                    JOINT RightHandIndex2
                    {
                      OFFSET -6.344434 0.0 0.0
                      CHANNELS 3 Zrotation Yrotation Xrotation
                      JOINT RightHandIndex3
                      {
                        OFFSET -3.654871 0.0 -8e-06
                        CHANNELS 3 Zrotation Yrotation Xrotation
                        JOINT RightHandIndex4
                        {
                          OFFSET -2.327586 -1e-06 0.0
                          CHANNELS 3 Zrotation Yrotation Xrotation
                          JOINT RightHandIndexEnd
                          {
                            OFFSET -2.770001 3e-06 8e-06
                            CHANNELS 3 Zrotation Yrotation Xrotation
                          }
                        }
                      }
                    }
                  }
                  JOINT RightHandMiddle1
                  {
                    OFFSET -3.168223 -0.944764 0.411762
                    CHANNELS 3 Zrotation Yrotation Xrotation
                    JOINT RightHandMiddle2
                    {
                      OFFSET -6.266691 -1e-06 -4e-06
                      CHANNELS 3 Zrotation Yrotation Xrotation
                      JOINT RightHandMiddle3
                      {
                        OFFSET -4.348901 0.0 0.0
                        CHANNELS 3 Zrotation Yrotation Xrotation
                        JOINT RightHandMiddle4
                        {
                          OFFSET -3.00024 2e-06 -4e-06
                          CHANNELS 3 Zrotation Yrotation Xrotation
                          JOINT RightHandMiddleEnd
                          {
                            OFFSET -2.321477 -4e-06 -4e-06
                            CHANNELS 3 Zrotation Yrotation Xrotation
                          }
                        }
                      }
                    }
                  }
                  JOINT RightHandRing1
                  {
                    OFFSET -2.885654 0.293261 -0.119232
                    CHANNELS 3 Zrotation Yrotation Xrotation
                    JOINT RightHandRing2
                    {
                      OFFSET -6.032835 -1e-06 -4e-06
                      CHANNELS 3 Zrotation Yrotation Xrotation
                      JOINT RightHandRing3
                      {
                        OFFSET -4.33881 0.0 -4e-06
                        CHANNELS 3 Zrotation Yrotation Xrotation
                        JOINT RightHandRing4
                        {
                          OFFSET -2.654903 -4e-06 -4e-06
                          CHANNELS 3 Zrotation Yrotation Xrotation
                          JOINT RightHandRingEnd
                          {
                            OFFSET -1.935122 0.0 4e-06
                            CHANNELS 3 Zrotation Yrotation Xrotation
                          }
                        }
                      }
                    }
                  }
                  JOINT RightHandPinky1
                  {
                    OFFSET -2.866241 1.503904 -0.60527
                    CHANNELS 3 Zrotation Yrotation Xrotation
                    JOINT RightHandPinky2
                    {
                      OFFSET -5.553177 -2e-06 0.0
                      CHANNELS 3 Zrotation Yrotation Xrotation
                      JOINT RightHandPinky3
                      {
                        OFFSET -3.062664 -1e-06 -4e-06
                        CHANNELS 3 Zrotation Yrotation Xrotation
                        JOINT RightHandPinky4
                        {
                          OFFSET -1.546529 2e-06 4e-06
                          CHANNELS 3 Zrotation Yrotation Xrotation
                          JOINT RightHandPinkyEnd
                          {
                            OFFSET -1.952341 0.0 -4e-06
                            CHANNELS 3 Zrotation Yrotation Xrotation
                          }
                        }
                      }
                    }
                  }
                }
              }
            }
          }
        }
      }
    }
    JOINT LeftLeg
    {
      OFFSET -8.443107 2.567604 10.043214
      CHANNELS 3 Zrotation Yrotation Xrotation
      JOINT LeftShin
      {
        OFFSET 43.229198 1e-06 -1e-06
        CHANNELS 3 Zrotation Yrotation Xrotation
        JOINT LeftFoot
        {
          OFFSET 42.298611 1e-06 1e-06
          CHANNELS 3 Zrotation Yrotation Xrotation
          JOINT LeftToeBase
          {
            OFFSET 14.165858 1e-06 0.0
            CHANNELS 3 Zrotation Yrotation Xrotation
            JOINT LeftToeEnd
            {
              OFFSET 6.7141 -0.234461 0.0
              CHANNELS 3 Zrotation Yrotation Xrotation
            }
          }
        }
      }
    }
    JOINT RightLeg
    {
      OFFSET -8.303923 2.592729 -10.047278
      CHANNELS 3 Zrotation Yrotation Xrotation
      JOINT RightShin
      {
        OFFSET -43.369682 0.0 1e-06
        CHANNELS 3 Zrotation Yrotation Xrotation
        JOINT RightFoot
        {
          OFFSET -42.260784 4e-06 2e-06
          CHANNELS 3 Zrotation Yrotation Xrotation
          JOINT RightToeBase
          {
            OFFSET -14.222245 -2e-06 -1e-06
            CHANNELS 3 Zrotation Yrotation Xrotation
            JOINT RightToeEnd
            {
              OFFSET -6.660062 0.232574 -2e-06
              CHANNELS 3 Zrotation Yrotation Xrotation
            }
          }
        }
      }
    }
  }
}
MOTION
Frames: 5
Frame Time: 0.03333333333333333
0.0 0.0 0.0 0.0 -0.0 0.0 -0.630849 99.724983 0.956112 91.00956 2.923626 89.993225 -3.107628 -0.568989 0.128359 -12.284307 -0.585294 0.747455 20.870646 0.08351 -1.49505 21.261126 -1.529955 2.497951 -2.61199 -0.702348 -1.107008 -36.161171 -0.971646 -1.922519 5e-06 -0.0 -0.0 0.038558 0.020658 -0.043274 0.061699 0.029203 -0.05721 0.057028 0.010913 -0.023396 -79.552635 -77.054817 93.734344 57.313122 -67.383698 -3.419407 28.870623 0.011339 0.197303 -8.580404 6.139141 2.998018 17.636627 -26.322733 52.411205 -19.46666 -14.395596 29.410389 -1e-06 -8.774821 -1e-06 16.312544 -17.938213 6.073246 -0.609777 -1.795654 -3.889326 -4.807087 -11.046809 -2.937851 6e-06 -20.976013 -2e-06 -5.019969 -25.033548 -4.031879 4e-06 1e-06 1e-06 -10.634535 -5.68697 -3.565586 10.573276 -17.922951 -3.113899 4e-06 -13.821208 0.0 -0.501776 -31.181501 -4.027012 -12.04199 -59.969818 8.047563 -13.982714 -7.150196 -2.875039 13.772731 -8.401491 -3.218242 0.347735 -34.211552 0.771655 -0.963026 -17.733372 2.621021 -1e-06 -1e-06 1e-06 -17.346416 -20.095215 -4.201784 21.757557 -1.638376 3.866429 2e-06 -6.338822 -1e-06 -1.697588 -22.591742 -6.194006 0.0 -6e-06 2e-06 43.419048 -81.328308 153.528946 52.401947 -65.132645 -19.726343 25.028278 0.088776 0.202912 -1.236081 8.53911 11.886655 22.182114 -20.375898 49.933327 -16.701811 -16.743528 28.476534 -3e-06 -12.6906 -2e-06 16.243999 -17.670155 2.636395 -0.105918 -1.513855 -4.27588 -5.03904 -5.612871 -2.953559 5e-06 -11.020523 -3e-06 -6.111295 -15.89533 -3.840472 0.0 1e-06 -0.0 -10.283369 -5.680287 -4.341838 11.028293 -11.302406 -2.372633 -1.384269 -14.238581 -6.32012 -0.625437 -26.924187 -3.827601 -3.874468 -49.627422 -3.975635 -13.708522 -7.363474 -3.720941 18.141146 -14.052738 -3.242674 7e-06 -18.787266 -0.0 -0.429712 -8.456045 2.555505 1e-06 0.0 -2e-06 -15.923532 -20.094479 -5.473585 30.419207 -7.190827 1.735926 3e-06 -8.162922 1e-06 -1.8619 -22.861469 -6.167942 1e-06 -3e-06 -1e-06 -176.759598 -1.334304 -9.70185 11.777404 -0.051308 -0.037354 -80.937248 -0.569676 -2.99184 -5.858797 1.569959 2.163198 -0.999998 0.0 0.0 1.626963 -3.293969 -13.298468 15.87158 0.031703 -0.047911 -82.976814 -3.525004 -4.897499 -6.775806 0.624102 1.615142 -1.000002 -0.0 -0.0 
0.0 0.0 0.0 0.0 -0.0 0.0 -0.590951 99.752464 0.938878 91.025566 2.921074 90.07679 -3.1068 -0.546375 0.103844 -12.264748 -0.553852 0.770009 20.86903 0.089274 -1.518944 21.24308 -1.704976 2.461307 -2.595865 -0.670312 -1.022881 -36.15654 -1.070762 -1.766441 6e-06 -0.0 0.0 0.038035 0.023737 -0.023423 0.076792 0.026418 -0.036332 0.073298 0.019806 -0.004549 -79.830177 -77.107941 94.113861 57.428791 -67.36454 -3.832009 28.830269 0.004932 0.145802 -8.418077 6.139037 2.819016 17.636623 -26.322721 52.411175 -19.466652 -14.395594 29.410378 -0.0 -8.77482 -1e-06 16.311703 -17.923538 6.061338 -0.609777 -1.795654 -3.889325 -4.807089 -11.046809 -2.937848 2e-06 -20.976011 -1e-06 -5.019972 -25.033554 -4.03188 6e-06 1e-06 1e-06 -10.634533 -5.68697 -3.565587 10.573271 -17.922947 -3.1139 3e-06 -13.821205 -0.0 -0.501775 -31.181501 -4.027017 -12.020939 -59.962185 8.043692 -13.982712 -7.150196 -2.875037 13.772726 -8.401489 -3.218241 0.347732 -34.211544 0.771653 -0.96303 -17.733366 2.621019 -1e-06 -1e-06 -0.0 -17.346415 -20.095213 -4.201779 21.757555 -1.638373 3.866427 1e-06 -6.338822 -1e-06 -1.69759 -22.59174 -6.194002 -1e-06 -6e-06 -2e-06 43.353962 -81.385689 153.743973 52.506268 -65.092743 -20.064526 24.825417 0.102572 0.191552 -1.216778 8.335906 11.675648 22.18211 -20.375895 49.933319 -16.701813 -16.743528 28.47653 -3e-06 -12.690599 -3e-06 16.287226 -17.687159 2.614984 -0.10592 -1.513855 -4.275882 -5.03904 -5.612871 -2.953557 4e-06 -11.02052 -2e-06 -6.111297 -15.895329 -3.84047 -0.0 1e-06 1e-06 -10.283367 -5.680287 -4.341839 11.028292 -11.302406 -2.372635 -1.384269 -14.238581 -6.320124 -0.625438 -26.924191 -3.8276 -3.862679 -49.727962 -3.994975 -13.708522 -7.363474 -3.720939 18.141148 -14.052738 -3.242679 8e-06 -18.78727 1e-06 -0.429711 -8.456043 2.555504 2e-06 1e-06 1e-06 -15.923532 -20.094482 -5.473585 30.419207 -7.190826 1.735924 3e-06 -8.162925 -1e-06 -1.861901 -22.861467 -6.167941 2e-06 -5e-06 -0.0 -176.578644 -1.262925 -9.6658 11.357789 -0.046018 0.006604 -80.739738 -0.542209 -3.04422 -5.866107 1.593227 2.172427 -1.0 -0.0 0.0 1.740848 -3.29592 -13.313648 15.624044 0.021913 -0.023103 -82.838959 -3.581288 -4.932996 -6.785735 0.603518 1.61185 -1.000002 1e-06 0.0 
0.0 0.0 0.0 0.0 -0.0 0.0 -0.541116 99.763039 0.924823 91.057808 2.942432 90.135941 -3.104462 -0.523855 0.093623 -12.259886 -0.530589 0.771288 20.930971 0.096047 -1.514626 21.193752 -1.942889 2.437465 -2.616896 -0.629604 -0.940156 -36.102169 -1.18969 -1.580437 5e-06 0.0 0.0 0.037075 0.02839 -0.011933 0.071104 0.021961 -0.025174 0.07248 0.033049 0.006943 -80.111778 -77.162422 94.472633 57.452942 -67.359657 -4.2241 28.868935 -0.010218 0.101003 -8.328023 6.153992 2.377086 17.636629 -26.322729 52.411201 -19.466656 -14.395596 29.410381 0.0 -8.774821 -2e-06 16.308353 -17.923988 6.052309 -0.609777 -1.795653 -3.889329 -4.80709 -11.046812 -2.937852 2e-06 -20.976015 -1e-06 -5.019972 -25.033556 -4.031885 4e-06 -0.0 2e-06 -10.634535 -5.686973 -3.565592 10.573271 -17.922947 -3.113899 2e-06 -13.821209 0.0 -0.501779 -31.181505 -4.027017 -12.036607 -59.907112 8.002381 -13.982715 -7.150199 -2.875044 13.772727 -8.401488 -3.218243 0.347729 -34.211544 0.771655 -0.963028 -17.73337 2.621017 0.0 -0.0 -0.0 -17.34642 -20.095219 -4.201783 21.757557 -1.638372 3.866428 2e-06 -6.338824 -2e-06 -1.697592 -22.591747 -6.194007 1e-06 -4e-06 -2e-06 43.064671 -81.476105 154.158798 52.603603 -65.019531 -20.32408 24.627157 0.124677 0.180185 -1.249142 8.172462 11.43574 22.182114 -20.375895 49.933319 -16.701809 -16.743528 28.476528 -2e-06 -12.690601 -3e-06 16.31617 -17.671835 2.609095 -0.105919 -1.513855 -4.27588 -5.039041 -5.612873 -2.953554 3e-06 -11.020523 -2e-06 -6.1113 -15.895332 -3.84047 1e-06 -0.0 -0.0 -10.283369 -5.680288 -4.341838 11.028292 -11.302404 -2.372631 -1.384271 -14.23858 -6.320122 -0.62544 -26.924191 -3.827601 -3.845359 -49.76704 -4.029427 -13.708527 -7.363475 -3.720936 18.14115 -14.052737 -3.242675 6e-06 -18.78727 -1e-06 -0.429712 -8.456043 2.555506 1e-06 2e-06 -1e-06 -15.923538 -20.094482 -5.473581 30.41921 -7.190823 1.735927 2e-06 -8.162925 -1e-06 -1.861903 -22.861469 -6.167941 1e-06 -6e-06 -0.0 -176.458771 -1.176344 -9.623777 11.126101 -0.046765 0.030655 -80.630722 -0.569389 -3.050705 -5.830453 1.604021 2.179294 -1.0 0.0 -0.0 1.796041 -3.34684 -13.288433 15.553813 0.023658 -0.013896 -82.79007 -3.656932 -4.997962 -6.753867 0.600327 1.611519 -1.000001 -0.0 -0.0 
0.0 0.0 0.0 0.0 -0.0 0.0 -0.47541 99.768326 0.914117 91.093727 2.968006 90.154419 -3.096614 -0.501187 0.097706 -12.259928 -0.506528 0.770916 21.002367 0.116432 -1.489819 21.11972 -2.258681 2.419634 -2.645156 -0.594151 -0.810173 -36.056103 -1.298106 -1.332378 5e-06 -0.0 0.0 0.035639 0.028908 -0.018047 0.06097 0.016807 -0.0318 0.067251 0.038651 0.001129 -80.483299 -77.221298 94.915627 57.413559 -67.364433 -4.490202 28.918201 0.006749 0.083423 -8.248051 6.19654 1.932803 17.636627 -26.322737 52.411201 -19.46666 -14.395598 29.410389 0.0 -8.774822 -4e-06 16.262083 -17.896832 6.069251 -0.609777 -1.795653 -3.889329 -4.807091 -11.046814 -2.937852 3e-06 -20.976021 -0.0 -5.019973 -25.03356 -4.03188 6e-06 -2e-06 -0.0 -10.634536 -5.686972 -3.565588 10.573275 -17.922951 -3.113899 2e-06 -13.821211 2e-06 -0.501779 -31.181505 -4.027016 -12.024761 -59.840454 7.949876 -13.982716 -7.1502 -2.875043 13.772729 -8.401492 -3.218241 0.347732 -34.211559 0.771655 -0.963031 -17.733372 2.621019 -1e-06 0.0 1e-06 -17.346422 -20.095221 -4.201783 21.757561 -1.638373 3.866426 1e-06 -6.338825 -1e-06 -1.697592 -22.591753 -6.194004 1e-06 -4e-06 -2e-06 42.723717 -81.587463 154.592621 52.690662 -64.95195 -20.475859 24.439026 0.177528 0.174956 -1.351213 7.954714 11.188375 22.182112 -20.375889 49.933308 -16.701813 -16.74353 28.47653 -2e-06 -12.690603 -4e-06 16.332052 -17.642445 2.614085 -0.105919 -1.513856 -4.275882 -5.039042 -5.612871 -2.953557 3e-06 -11.020521 -2e-06 -6.1113 -15.89533 -3.840468 0.0 -1e-06 1e-06 -10.283371 -5.68029 -4.341844 11.028296 -11.302404 -2.372632 -1.384271 -14.238582 -6.320121 -0.62544 -26.924189 -3.827601 -3.852762 -49.755283 -4.029081 -13.708526 -7.363476 -3.72094 18.141148 -14.052739 -3.242672 6e-06 -18.78727 -3e-06 -0.429711 -8.456044 2.555505 1e-06 1e-06 -1e-06 -15.923538 -20.094484 -5.473584 30.41921 -7.190825 1.735928 2e-06 -8.162922 -1e-06 -1.861902 -22.861469 -6.167945 -0.0 -5e-06 1e-06 -176.352829 -1.07829 -9.626899 10.947429 -0.04921 0.038508 -80.552155 -0.60993 -3.026001 -5.804696 1.600496 2.179001 -0.999998 0.0 0.0 1.823464 -3.425891 -13.25896 15.544935 0.028 -0.017286 -82.769035 -3.672942 -5.076525 -6.739192 0.598454 1.611088 -1.000001 1e-06 0.0 
0.0 0.0 0.0 0.0 -0.0 0.0 -0.398181 99.769028 0.908807 91.129265 2.983342 90.165344 -3.090755 -0.474243 0.109704 -12.263046 -0.481274 0.77074 21.078337 0.134766 -1.456236 20.996853 -2.62975 2.412438 -2.663146 -0.555003 -0.640661 -36.022209 -1.384979 -1.021202 5e-06 -0.0 -0.0 0.03546 0.030109 -0.021442 0.059354 0.016887 -0.03542 0.069411 0.04046 -0.002088 -80.679123 -77.283798 95.197098 57.459309 -67.38443 -4.786371 28.935944 0.038825 0.088406 -8.155377 6.225759 1.535921 17.636629 -26.322721 52.411179 -19.46666 -14.395596 29.410385 -0.0 -8.774822 -1e-06 16.183722 -17.840069 6.102582 -0.609776 -1.795653 -3.889328 -4.807088 -11.046811 -2.937851 4e-06 -20.976019 -1e-06 -5.019969 -25.03356 -4.03188 5e-06 1e-06 1e-06 -10.634533 -5.68697 -3.565585 10.573272 -17.922949 -3.1139 3e-06 -13.821209 1e-06 -0.501778 -31.181505 -4.027017 -11.984042 -59.759571 7.902349 -13.982714 -7.150198 -2.875041 13.772727 -8.401491 -3.218241 0.347733 -34.211555 0.77165 -0.963026 -17.73337 2.621017 0.0 0.0 1e-06 -17.346416 -20.095215 -4.201779 21.757557 -1.638372 3.866425 2e-06 -6.338822 -2e-06 -1.697589 -22.591745 -6.194006 1e-06 -6e-06 -1e-06 42.451599 -81.724403 154.937393 52.887115 -64.881073 -20.605824 24.235548 0.230638 0.179963 -1.484062 7.708025 10.875428 22.18211 -20.375889 49.933308 -16.701811 -16.743526 28.476524 -4e-06 -12.690597 -1e-06 16.339106 -17.622194 2.627103 -0.10592 -1.513856 -4.275881 -5.03904 -5.61287 -2.953554 5e-06 -11.02052 -1e-06 -6.111294 -15.895329 -3.840471 -0.0 0.0 -0.0 -10.283369 -5.680287 -4.341836 11.028293 -11.302402 -2.372633 -1.384269 -14.238576 -6.320119 -0.625437 -26.924185 -3.827599 -3.876088 -49.747292 -4.009263 -13.708525 -7.363475 -3.720937 18.14115 -14.052739 -3.242677 9e-06 -18.78727 -1e-06 -0.429711 -8.456045 2.555504 1e-06 0.0 -0.0 -15.923528 -20.094479 -5.473586 30.419205 -7.190827 1.735926 4e-06 -8.162925 -0.0 -1.861899 -22.861467 -6.167942 2e-06 -4e-06 -0.0 -176.293869 -0.978648 -9.640887 10.850671 -0.054744 0.035443 -80.514069 -0.64717 -2.971437 -5.791377 1.594208 2.175767 -0.999999 0.0 -0.0 1.821377 -3.522782 -13.261353 15.582235 0.031915 -0.019075 -82.772964 -3.628011 -5.169092 -6.726878 0.600693 1.611979 -1.000001 0.0 0.0 
